<svg xmlns="http://www.w3.org/2000/svg" width="12.004" height="12" viewBox="0 0 12.004 12">
  <g id="auction_3_" data-name="auction (3)" transform="translate(0 -0.09)">
    <g id="Group_995" data-name="Group 995" transform="translate(0 9.98)">
      <g id="Group_994" data-name="Group 994" transform="translate(0)">
        <path id="Path_242" data-name="Path 242" d="M7.386,423.317H7a1.761,1.761,0,0,0-1.723-1.407H2.463A1.761,1.761,0,0,0,.74,423.317H.353a.352.352,0,1,0,0,.7H7.386a.352.352,0,1,0,0-.7Z" transform="translate(-0.001 -421.91)" fill="#12100b"/>
      </g>
    </g>
    <g id="Group_997" data-name="Group 997" transform="translate(4.974 0.09)">
      <g id="Group_996" data-name="Group 996" transform="translate(0 0)">
        <path id="Path_243" data-name="Path 243" d="M216.319,3.28,213.334.3a.7.7,0,0,0-.995.995l2.984,2.984a.7.7,0,1,0,.995-.995Z" transform="translate(-212.134 -0.09)" fill="#12100b"/>
      </g>
    </g>
    <g id="Group_999" data-name="Group 999" transform="translate(0 5.064)">
      <g id="Group_998" data-name="Group 998" transform="translate(0)">
        <path id="Path_244" data-name="Path 244" d="M4.185,215.413,1.2,212.429a.7.7,0,0,0-.995.995l2.984,2.984a.7.7,0,0,0,.995-.995Z" transform="translate(0 -212.223)" fill="#12100b"/>
      </g>
    </g>
    <g id="Group_1001" data-name="Group 1001" transform="translate(1.698 1.788)">
      <g id="Group_1000" data-name="Group 1000" transform="translate(0 0)">
        <rect id="Rectangle_1145" data-name="Rectangle 1145" width="4.22" height="4.22" transform="translate(0 2.984) rotate(-45)" fill="#12100b"/>
      </g>
    </g>
    <g id="Group_1003" data-name="Group 1003" transform="translate(9.703 9.746)">
      <g id="Group_1002" data-name="Group 1002">
        <path id="Path_245" data-name="Path 245" d="M415.831,412.471l-.5-.543-1.492,1.492.5.543a1.055,1.055,0,1,0,1.492-1.492Z" transform="translate(-413.839 -411.928)" fill="#12100b"/>
      </g>
    </g>
    <g id="Group_1005" data-name="Group 1005" transform="translate(5.969 6.059)">
      <g id="Group_1004" data-name="Group 1004">
        <path id="Path_246" data-name="Path 246" d="M256.927,255.524a.693.693,0,0,0-.172-.67.7.7,0,0,0-.995,0l-.995.995a.7.7,0,0,0,0,.995.693.693,0,0,0,.67.172l2.361,2.314,1.492-1.492Z" transform="translate(-254.559 -254.648)" fill="#12100b"/>
      </g>
    </g>
  </g>
</svg>
