<svg id="BMW" xmlns="http://www.w3.org/2000/svg" width="20" height="20" viewBox="0 0 20 20">
  <path id="Path_983" data-name="Path 983" d="M18.3,8.3a10,10,0,1,0,10,10A10.018,10.018,0,0,0,18.3,8.3Zm0,19.76a9.76,9.76,0,1,1,9.761-9.76A9.762,9.762,0,0,1,18.3,28.06Z" transform="translate(-8.3 -8.3)"/>
  <path id="Path_984" data-name="Path 984" d="M15.219,17.437h0a6.342,6.342,0,0,0,.6-.719c.06-.06.12-.18.24-.24a.54.54,0,0,0,.06-.3.329.329,0,0,0-.3-.18.311.311,0,0,0-.24.12,1.306,1.306,0,0,1-.24.3c-.18.24-.359.419-.539.659a1.051,1.051,0,0,1,.3.24A.129.129,0,0,0,15.219,17.437Z" transform="translate(-10.908 -11.389)"/>
  <path id="Path_985" data-name="Path 985" d="M18.581,9a9.581,9.581,0,1,0,9.581,9.581A9.609,9.609,0,0,0,18.581,9Zm-1.557.6.9-.12.659,1.916.659-1.916.9.12.12,2.695-.719-.12-.06-1.8-.659,1.8h-.479l-.659-1.8-.06,1.8-.719.12ZM10.976,14.03a.827.827,0,0,0-.24-.18h0a.059.059,0,0,1,.06-.06l.539-.719c.24-.3.419-.539.659-.838.06-.06.06-.12.12-.18a.329.329,0,0,1,.3-.18.832.832,0,0,1,.659.12,1.309,1.309,0,0,1,.18.3v.359a.059.059,0,0,0,.06-.06.771.771,0,0,1,.719-.06.651.651,0,0,1,.419.6v.3a2.1,2.1,0,0,1-.3.479c-.24.3-.419.539-.659.838l-.539.719a.059.059,0,0,1-.06.06h0l-.18-.18c-.3-.24-.539-.419-.838-.659C11.515,14.449,11.275,14.269,10.976,14.03Zm7.6,10.539a5.988,5.988,0,1,1,5.988-5.988A6.006,6.006,0,0,1,18.581,24.569Zm5.689-9.1-.359-.6,1.2-1.557-1.8.838-.479-.479,1.617-2.156.479.479-.958,1.2,1.5-.659.419.539-1.018,1.317,1.5-.6.359.6Z" transform="translate(-8.581 -8.581)"/>
  <path id="Path_986" data-name="Path 986" d="M14.517,15.333a.54.54,0,0,0-.06-.3c-.06-.12-.24-.12-.359-.06l-.18.18c-.24.24-.419.539-.659.778l-.06.06.12.12c.12.12.24.18.359.3.12-.12.24-.3.359-.419s.24-.3.359-.419C14.457,15.453,14.517,15.393,14.517,15.333Z" transform="translate(-10.266 -10.962)"/>
  <path id="Path_987" data-name="Path 987" d="M15.5,21.189h5.689V15.5A5.889,5.889,0,0,0,15.5,21.189Z" transform="translate(-11.189 -11.189)"/>
  <path id="Path_988" data-name="Path 988" d="M25,30.689A5.805,5.805,0,0,0,30.689,25H25Z" transform="translate(-15 -15)"/>
</svg>
