<svg xmlns="http://www.w3.org/2000/svg" width="13.684" height="10" viewBox="0 0 13.684 10">
  <g id="Icon_ionic-ios-car" data-name="Icon ionic-ios-car" transform="translate(-3.375 -7.313)">
    <g id="Group_959" data-name="Group 959" transform="translate(3.375 7.313)">
      <path id="Path_217" data-name="Path 217" d="M15.48,10.345c-.454-1.013-1.612-3.033-3.289-3.033H8.243c-1.678,0-2.789,1.954-3.289,3.033a3.79,3.79,0,0,0-1.579,2.789v2.5a.264.264,0,0,0,.2.257,36.443,36.443,0,0,0,6.638.336,36.443,36.443,0,0,0,6.638-.336.264.264,0,0,0,.2-.257v-2.5A3.56,3.56,0,0,0,15.48,10.345ZM8.046,8.1h4.342c1.332,0,2.039,1.974,2.039,2.3H6.007C6.007,10.076,6.895,8.1,8.046,8.1ZM5.48,14.8A1.053,1.053,0,1,1,6.533,13.75,1.052,1.052,0,0,1,5.48,14.8Zm7.105-1.043a.528.528,0,0,1-.526.526H8.375a.528.528,0,0,1-.526-.526h0a.528.528,0,0,1,.526-.526h3.684a.528.528,0,0,1,.526.526Zm2.368,1.053a1.053,1.053,0,1,1,1.053-1.053A1.052,1.052,0,0,1,14.954,14.812Z" transform="translate(-3.375 -7.313)" fill="#12100b"/>
      <path id="Path_218" data-name="Path 218" d="M7.658,26.813c-1.576,0-3.158-.164-3.158-.164,0,.559-.01.954.2.954h2.8C7.7,27.6,7.658,27.168,7.658,26.813Z" transform="translate(-3.974 -17.602)" fill="#12100b"/>
    </g>
    <path id="Path_219" data-name="Path 219" d="M24.743,26.813c1.579,0,3.158-.164,3.158-.164,0,.526.066.954-.164.954H24.907C24.687,27.6,24.743,27.158,24.743,26.813Z" transform="translate(-11.368 -10.29)" fill="#12100b"/>
  </g>
</svg>
