<svg id="dashboard" xmlns="http://www.w3.org/2000/svg" width="14" height="14" viewBox="0 0 14 14">
  <path id="Path_466" data-name="Path 466" d="M5.4,0H1.021A1.022,1.022,0,0,0,0,1.021V3.646A1.022,1.022,0,0,0,1.021,4.667H5.4A1.022,1.022,0,0,0,6.417,3.646V1.021A1.022,1.022,0,0,0,5.4,0Zm0,0" fill="#fff"/>
  <path id="Path_467" data-name="Path 467" d="M5.4,213.332H1.021A1.022,1.022,0,0,0,0,214.353v6.125A1.022,1.022,0,0,0,1.021,221.5H5.4a1.022,1.022,0,0,0,1.021-1.021v-6.125A1.022,1.022,0,0,0,5.4,213.332Zm0,0" transform="translate(0 -207.499)" fill="#fff"/>
  <path id="Path_468" data-name="Path 468" d="M282.728,341.332h-4.375a1.022,1.022,0,0,0-1.021,1.021v2.625A1.022,1.022,0,0,0,278.353,346h4.375a1.022,1.022,0,0,0,1.021-1.021v-2.625A1.022,1.022,0,0,0,282.728,341.332Zm0,0" transform="translate(-269.749 -331.999)" fill="#fff"/>
  <path id="Path_469" data-name="Path 469" d="M282.728,0h-4.375a1.022,1.022,0,0,0-1.021,1.021V7.146a1.022,1.022,0,0,0,1.021,1.021h4.375a1.022,1.022,0,0,0,1.021-1.021V1.021A1.022,1.022,0,0,0,282.728,0Zm0,0" transform="translate(-269.749)" fill="#fff"/>
</svg>
