<svg xmlns="http://www.w3.org/2000/svg" width="13.939" height="14" viewBox="0 0 13.939 14">
  <g id="edit-button" transform="translate(-0.757)">
    <path id="Path_254" data-name="Path 254" d="M103.932.472l-.017-.015a1.744,1.744,0,0,0-2.464.111L95.217,7.393a.6.6,0,0,0-.127.215l-.733,2.2a.836.836,0,0,0,.791,1.1h0a.832.832,0,0,0,.336-.071l2.122-.928a.6.6,0,0,0,.2-.146l6.234-6.825A1.746,1.746,0,0,0,103.932.472ZM95.762,9.4l.43-1.289.036-.04.815.745-.036.04Zm7.393-7.275-5.3,5.8-.815-.745,5.3-5.8a.541.541,0,0,1,.764-.034l.017.015A.541.541,0,0,1,103.155,2.125Z" transform="translate(-89.803)" fill="#12100b"/>
    <path id="Path_255" data-name="Path 255" d="M12.92,36.524a.6.6,0,0,0-.6.6v5.11a1.533,1.533,0,0,1-1.531,1.531h-7.3a1.533,1.533,0,0,1-1.531-1.531V35A1.533,1.533,0,0,1,3.492,33.47h5.28a.6.6,0,0,0,0-1.2H3.492A2.738,2.738,0,0,0,.757,35v7.236a2.738,2.738,0,0,0,2.735,2.735h7.3a2.738,2.738,0,0,0,2.735-2.735v-5.11A.6.6,0,0,0,12.92,36.524Z" transform="translate(0 -30.971)" fill="#12100b"/>
  </g>
</svg>
