<svg xmlns="http://www.w3.org/2000/svg" width="17" height="11.953" viewBox="0 0 17 11.953">
  <g id="email_1_" data-name="email (1)" transform="translate(0 -76)">
    <g id="Group_1006" data-name="Group 1006" transform="translate(0 76)">
      <path id="Path_256" data-name="Path 256" d="M15.506,76H1.494A1.5,1.5,0,0,0,0,77.494v8.965a1.5,1.5,0,0,0,1.494,1.494H15.506A1.5,1.5,0,0,0,17,86.459V77.494A1.5,1.5,0,0,0,15.506,76Zm-.229,1-6.39,6.411a.582.582,0,0,1-.772,0L1.724,77ZM1,86.276v-8.6l4.285,4.3Zm.727.681,4.261-4.275,1.424,1.429a1.576,1.576,0,0,0,2.183,0l1.424-1.429,4.261,4.275ZM16,86.276l-4.285-4.3L16,77.677Z" transform="translate(0 -76)"/>
    </g>
  </g>
</svg>
