<svg xmlns="http://www.w3.org/2000/svg" width="12" height="12" viewBox="0 0 12 12">
  <path id="euro-sign" d="M7.5,1.5a6,6,0,1,0,6,6,6,6,0,0,0-6-6ZM9.946,9.788A3.032,3.032,0,0,1,5.1,8.537H4.517a.4.4,0,1,1,0-.8h.409C4.92,7.66,4.913,7.58,4.913,7.5s.006-.16.012-.238H4.517a.4.4,0,1,1,0-.8H5.1a3.038,3.038,0,0,1,2.849-2,3,3,0,0,1,1.875.648.4.4,0,1,1-.494.629,2.213,2.213,0,0,0-1.381-.477,2.237,2.237,0,0,0-1.978,1.2H7.635a.4.4,0,0,1,0,.8H5.727a2.258,2.258,0,0,0-.014.238,2.293,2.293,0,0,0,.013.236H7.635a.4.4,0,1,1,0,.8H5.971a2.234,2.234,0,0,0,3.449.65.4.4,0,1,1,.526.6Z" transform="translate(-1.5 -1.5)" fill="#12100b"/>
</svg>
