<svg xmlns="http://www.w3.org/2000/svg" width="8.53" height="8.139" viewBox="0 0 8.53 8.139">
  <g id="favorite" transform="translate(0 -11.721)">
    <g id="Group_983" data-name="Group 983" transform="translate(0 11.721)">
      <path id="Path_224" data-name="Path 224" d="M8.517,14.81a.275.275,0,0,0-.225-.188L5.66,14.271,4.513,11.877a.275.275,0,0,0-.5,0L2.87,14.271l-2.631.351a.275.275,0,0,0-.153.472l1.923,1.83-.48,2.611a.275.275,0,0,0,.4.292l2.335-1.263L6.6,19.827a.275.275,0,0,0,.4-.292l-.48-2.611,1.923-1.83A.275.275,0,0,0,8.517,14.81Z" transform="translate(0 -11.721)" fill="#ff842b"/>
    </g>
  </g>
</svg>
