<svg xmlns="http://www.w3.org/2000/svg" width="14" height="14" viewBox="0 0 14 14">
  <path id="Path_460" data-name="Path 460" d="M2.7,4.8h7.7a1.4,1.4,0,0,0,1.4,1.4h1.4a1.4,1.4,0,0,0,1.4-1.4h.7a.7.7,0,1,0,0-1.4h-.7A1.4,1.4,0,0,0,13.2,2H11.8a1.4,1.4,0,0,0-1.4,1.4H2.7a.7.7,0,1,0,0,1.4Zm9.1-1.4h1.4V4.8H11.8Zm3.5,4.9H9A1.4,1.4,0,0,0,7.6,6.9H6.2A1.4,1.4,0,0,0,4.8,8.3H2.7a.7.7,0,1,0,0,1.4H4.8a1.4,1.4,0,0,0,1.4,1.4H7.6A1.4,1.4,0,0,0,9,9.7h6.3a.7.7,0,1,0,0-1.4ZM6.2,9.7V8.3H7.6V9.7Zm9.1,3.5H13.2a1.4,1.4,0,0,0-1.4-1.4H10.4A1.4,1.4,0,0,0,9,13.2H2.7a.7.7,0,0,0,0,1.4H9A1.4,1.4,0,0,0,10.4,16h1.4a1.4,1.4,0,0,0,1.4-1.4h2.1a.7.7,0,1,0,0-1.4Zm-4.9,1.4V13.2h1.4v1.4Z" transform="translate(-2 -2)"/>
</svg>
