<svg id="gear_1_" data-name="gear (1)" xmlns="http://www.w3.org/2000/svg" width="14" height="14" viewBox="0 0 14 14">
  <g id="Group_1202" data-name="Group 1202">
    <path id="Path_463" data-name="Path 463" d="M13.689,5.782l-1.606-.395a5.3,5.3,0,0,0-.371-.882l.748-1.246a.41.41,0,0,0-.062-.5L11.239,1.6a.409.409,0,0,0-.5-.062L9.49,2.284a5.284,5.284,0,0,0-.877-.367L8.218.311A.41.41,0,0,0,7.82,0H6.18a.41.41,0,0,0-.4.311s-.274,1.121-.395,1.605a5.266,5.266,0,0,0-.931.4L3.162,1.536a.411.411,0,0,0-.5.062L1.5,2.758a.41.41,0,0,0-.062.5L2.24,4.6a5.285,5.285,0,0,0-.323.79l-1.606.4A.41.41,0,0,0,0,6.18V7.82a.41.41,0,0,0,.311.4l1.606.395a5.29,5.29,0,0,0,.377.9L1.578,10.7a.41.41,0,0,0,.062.5l1.16,1.16a.412.412,0,0,0,.5.062l1.2-.717a5.284,5.284,0,0,0,.89.375l.395,1.605a.41.41,0,0,0,.4.311H7.82a.41.41,0,0,0,.4-.311l.395-1.605a5.21,5.21,0,0,0,.91-.387l1.215.729a.41.41,0,0,0,.5-.062L12.4,11.2a.41.41,0,0,0,.062-.5l-.737-1.228a5.253,5.253,0,0,0,.36-.862l1.606-.395A.41.41,0,0,0,14,7.82V6.18A.41.41,0,0,0,13.689,5.782ZM7,9.871A2.871,2.871,0,1,1,9.871,7,2.875,2.875,0,0,1,7,9.871Z" fill="#fff"/>
  </g>
</svg>
