<svg xmlns="http://www.w3.org/2000/svg" width="28.799" height="18" viewBox="0 0 28.799 18">
  <path id="Icon_awesome-google-plus-g" data-name="Icon awesome-google-plus-g" d="M18.4,12.211a7.634,7.634,0,0,1,.147,1.5c0,5.145-3.45,8.791-8.644,8.791a9,9,0,0,1,0-18,8.6,8.6,0,0,1,6.029,2.357L13.485,9.2A5.053,5.053,0,0,0,9.9,7.815a5.686,5.686,0,0,0,0,11.37,4.875,4.875,0,0,0,5.108-3.88H9.9V12.211h8.5Zm8.691.3V9.9H24.462v2.612H21.85v2.625h2.612V17.75h2.625V15.138H29.7V12.512H27.087Z" transform="translate(-0.9 -4.5)" fill="#747474"/>
</svg>
