<svg xmlns="http://www.w3.org/2000/svg" width="18" height="13.154" viewBox="0 0 18 13.154">
  <g id="Icon_ionic-ios-car" data-name="Icon ionic-ios-car" transform="translate(-3.375 -7.313)">
    <g id="Group_959" data-name="Group 959" transform="translate(3.375 7.313)">
      <path id="Path_217" data-name="Path 217" d="M19.3,11.3c-.6-1.333-2.12-3.989-4.327-3.989H9.779c-2.207,0-3.669,2.57-4.327,3.989-1.038,1-2.077,1.977-2.077,3.669V18.26a.347.347,0,0,0,.268.337c.645.147,2.691.441,8.732.441s8.087-.294,8.732-.441a.347.347,0,0,0,.268-.337V14.971A4.683,4.683,0,0,0,19.3,11.3ZM9.519,8.351h5.712c1.752,0,2.683,2.6,2.683,3.029H6.837C6.837,10.947,8,8.351,9.519,8.351ZM6.144,17.165A1.385,1.385,0,1,1,7.529,15.78,1.383,1.383,0,0,1,6.144,17.165Zm9.346-1.372a.694.694,0,0,1-.692.692H9.952a.694.694,0,0,1-.692-.692h0a.694.694,0,0,1,.692-.692H14.8a.694.694,0,0,1,.692.692Zm3.115,1.385a1.385,1.385,0,1,1,1.385-1.385A1.383,1.383,0,0,1,18.606,17.178Z" transform="translate(-3.375 -7.313)" fill="#12100b"/>
      <path id="Path_218" data-name="Path 218" d="M8.654,26.865c-2.073,0-4.154-.216-4.154-.216,0,.736-.013,1.255.26,1.255H8.437C8.71,27.9,8.654,27.332,8.654,26.865Z" transform="translate(-3.808 -14.749)" fill="#12100b"/>
    </g>
    <path id="Path_219" data-name="Path 219" d="M24.745,26.865c2.077,0,4.154-.216,4.154-.216,0,.692.087,1.255-.216,1.255H24.961C24.671,27.9,24.745,27.319,24.745,26.865Z" transform="translate(-8.216 -7.437)" fill="#12100b"/>
  </g>
</svg>
