<svg id="bg594569791" xmlns="http://www.w3.org/2000/svg" width="170.742" height="30" viewBox="0 0 170.742 30">
  <path id="Path_6" data-name="Path 6" d="M64.917,12.3h-4.88l-3.947,3.947L53.362,12.3H48.553l4.665,6.89L46.4,26.08h4.88l3.876-3.947,2.727,3.947h4.88L58.1,19.19Z" transform="translate(-13.099 -3.472)" fill="#12100b" fill-rule="evenodd"/>
  <path id="Path_7" data-name="Path 7" d="M26.967,0h-4.45L19,22.608h4.45Z" transform="translate(-5.364)" fill="#fed000" fill-rule="evenodd"/>
  <path id="Path_8" data-name="Path 8" d="M17.395,0H13.017L9.5,22.608h4.45Z" transform="translate(-2.682)" fill="#d71016" fill-rule="evenodd"/>
  <path id="Path_9" data-name="Path 9" d="M7.895,0H3.517L0,22.608H4.45Z" fill="#12100b" fill-rule="evenodd"/>
  <path id="Path_10" data-name="Path 10" d="M40.2,22.608l.574-3.8H33.524l.933-6.172h7.249l.574-3.8H35.031L35.821,3.8h7.249L43.715,0h-11.7L28.5,22.608H40.2Z" transform="translate(-8.045)" fill="#13120d"/>
  <path id="Path_11" data-name="Path 11" d="M140.8,7.68a2.913,2.913,0,0,0,2.8-2.44,2.05,2.05,0,0,0-2.01-2.44,2.983,2.983,0,0,0-2.8,2.44A2.021,2.021,0,0,0,140.8,7.68Z" transform="translate(-39.171 -0.79)" fill="#13120d"/>
  <path id="Path_12" data-name="Path 12" d="M193.64,15a3.17,3.17,0,0,1,2.656,1.364l.574-3.8a5.544,5.544,0,0,0-3.086-.861,8.671,8.671,0,0,0-8.325,7.392c-.646,3.947,1.722,7.321,5.813,7.321a7.709,7.709,0,0,0,3.517-.861l.574-3.8a4.263,4.263,0,0,1-2.943,1.292c-2.225,0-3.3-1.794-3.014-3.947C189.837,17.083,191.487,15,193.64,15Z" transform="translate(-52.325 -3.303)" fill="#13120d"/>
  <path id="Path_13" data-name="Path 13" d="M128.4,17.485c-1.292-.646-2.655-.933-2.512-1.938a1.55,1.55,0,0,1,1.507-1.148,2.779,2.779,0,0,1,1.938.933l2.01-2.3a6.072,6.072,0,0,0-4.234-1.435,5.167,5.167,0,0,0-5.1,4.45c-.359,2.225.933,3.014,2.153,3.66,1.292.574,2.584.861,2.44,2.081a1.777,1.777,0,0,1-1.794,1.507,3.577,3.577,0,0,1-2.655-1.579L120,24.088a5.446,5.446,0,0,0,4.522,2.3,5.96,5.96,0,0,0,6.1-4.88A3.439,3.439,0,0,0,128.4,17.485Z" transform="translate(-33.876 -3.275)" fill="#13120d"/>
  <path id="Path_14" data-name="Path 14" d="M109.116,24.69l-.215,1.22h3.876l2.153-13.78h-3.876l-.215,1.292A4.263,4.263,0,0,0,107.25,11.7c-3.947,0-6.818,3.66-7.392,7.249-.574,3.732,1.148,7.392,5.167,7.392a5.521,5.521,0,0,0,4.091-1.651Zm-5.239-5.67c.287-1.866,1.794-3.876,3.876-3.876,2.01,0,2.943,2.01,2.656,3.876s-1.866,3.876-3.876,3.876S103.59,20.887,103.877,19.021Z" transform="translate(-28.159 -3.303)" fill="#13120d"/>
  <path id="Path_15" data-name="Path 15" d="M232.689,11.7a4.758,4.758,0,0,0-3.732,1.866h-.072l.215-1.435h-3.947L223,25.911h3.947l.933-6.172c.359-2.153,1-4.522,3.732-4.522a2.253,2.253,0,0,1,1.507.5l.574-3.8A2.292,2.292,0,0,0,232.689,11.7Z" transform="translate(-62.952 -3.303)" fill="#13120d"/>
  <path id="Path_16" data-name="Path 16" d="M210.916,24.69l-.215,1.22h3.876l2.153-13.78h-3.876l-.215,1.292A4.263,4.263,0,0,0,209.05,11.7c-3.947,0-6.818,3.66-7.392,7.249-.574,3.732,1.148,7.392,5.167,7.392a5.412,5.412,0,0,0,4.091-1.651Zm-5.239-5.67c.287-1.866,1.866-3.876,3.876-3.876s2.943,2.01,2.655,3.876-1.866,3.876-3.876,3.876S205.39,20.887,205.677,19.021Z" transform="translate(-56.897 -3.303)" fill="#13120d"/>
  <path id="Path_17" data-name="Path 17" d="M74.417,0,70.9,22.608h4.163L78.579,0Z" transform="translate(-20.015)" fill="#13120d"/>
  <path id="Path_18" data-name="Path 18" d="M139.376,26.08l2.153-13.78h-3.876L135.5,26.08Z" transform="translate(-38.251 -3.472)" fill="#13120d"/>
  <path id="Path_19" data-name="Path 19" d="M154.033,11.7a4.988,4.988,0,0,0-3.876,1.722h-.072l.215-1.292h-3.947L144.2,25.911h3.947l1.077-6.818c.287-1.651.718-4.306,3.014-4.306,2.225,0,1.794,2.153,1.507,3.8l-1.077,7.321h3.947l1.292-8.4C158.411,14.284,157.693,11.7,154.033,11.7Z" transform="translate(-40.707 -3.303)" fill="#13120d"/>
  <path id="Path_20" data-name="Path 20" d="M88.612,22.078A3.127,3.127,0,0,1,86.1,23.37c-2.01,0-2.081-1.938-1.866-3.732H92.99l.072-.5c.646-4.163-.861-7.536-5.383-7.536-4.45,0-7.177,3.3-7.823,7.464s1.507,7.249,5.742,7.249a7.654,7.654,0,0,0,6.89-4.306H88.612ZM87.535,14.4c1.507,0,2.225,1.364,2.153,2.8H84.449A3.5,3.5,0,0,1,87.535,14.4Z" transform="translate(-22.511 -3.275)" fill="#12100b" fill-rule="evenodd"/>
  <path id="Path_21" data-name="Path 21" d="M175.229,12.1l-.215,1.292h-.072a3.892,3.892,0,0,0-3.3-1.794c-4.091,0-6.962,3.66-7.536,7.464-.574,3.732,1,7.249,5.024,7.249a5.791,5.791,0,0,0,4.019-1.794h.072l-.144.933c-.287,2.081-.789,4.522-3.517,4.522a2.079,2.079,0,0,1-2.225-1.651H163.1c.072,3.158,2.943,4.952,6.1,4.952,5.167,0,7.249-3.732,7.967-8.182l2.01-12.919h-3.947Zm-.574,6.89c-.287,1.866-1.794,3.876-3.876,3.876-2.01,0-2.943-2.01-2.655-3.876s1.866-3.876,3.876-3.876S174.942,17.126,174.655,18.992Z" transform="translate(-46.043 -3.275)" fill="#12100b" fill-rule="evenodd"/>
</svg>
