<svg xmlns="http://www.w3.org/2000/svg" width="17" height="11.769" viewBox="0 0 17 11.769">
  <g id="Icon_ionic-ios-mail" data-name="Icon ionic-ios-mail" transform="translate(-3.375 -7.875)">
    <path id="Path_260" data-name="Path 260" d="M20.236,10.339l-4.4,4.479a.079.079,0,0,0,0,.114l3.077,3.277a.53.53,0,0,1,0,.752.533.533,0,0,1-.752,0L15.1,15.7a.084.084,0,0,0-.119,0l-.748.76a3.29,3.29,0,0,1-2.346.989,3.356,3.356,0,0,1-2.395-1.018L8.773,15.7a.084.084,0,0,0-.119,0L5.59,18.962a.533.533,0,0,1-.752,0,.53.53,0,0,1,0-.752l3.077-3.277a.087.087,0,0,0,0-.114l-4.4-4.479a.081.081,0,0,0-.139.057v8.962a1.312,1.312,0,0,0,1.308,1.308H19.067a1.312,1.312,0,0,0,1.308-1.308V10.4A.082.082,0,0,0,20.236,10.339Z" transform="translate(0 -1.021)" fill="#33b5fa"/>
    <path id="Path_261" data-name="Path 261" d="M12.231,15.357a2.222,2.222,0,0,0,1.6-.67l6.412-6.526a1.284,1.284,0,0,0-.809-.286H5.035a1.276,1.276,0,0,0-.809.286l6.412,6.526A2.222,2.222,0,0,0,12.231,15.357Z" transform="translate(-0.356 0)" fill="#33b5fa"/>
  </g>
</svg>
