<svg xmlns="http://www.w3.org/2000/svg" width="16" height="11.077" viewBox="0 0 16 11.077">
  <g id="Icon_ionic-ios-mail" data-name="Icon ionic-ios-mail" transform="translate(-3.375 -7.875)">
    <path id="Path_260" data-name="Path 260" d="M19.244,10.337l-4.138,4.215a.074.074,0,0,0,0,.108L18,17.745a.5.5,0,0,1,0,.708.5.5,0,0,1-.708,0L14.41,15.38a.079.079,0,0,0-.112,0l-.7.715a3.1,3.1,0,0,1-2.208.931,3.159,3.159,0,0,1-2.254-.958l-.677-.688a.079.079,0,0,0-.112,0L5.46,18.453a.5.5,0,0,1-.708,0,.5.5,0,0,1,0-.708l2.9-3.085a.082.082,0,0,0,0-.108L3.506,10.337a.076.076,0,0,0-.131.054v8.435a1.234,1.234,0,0,0,1.231,1.231H18.144a1.234,1.234,0,0,0,1.231-1.231V10.391A.077.077,0,0,0,19.244,10.337Z" transform="translate(0 -1.105)"/>
    <path id="Path_261" data-name="Path 261" d="M11.76,14.917a2.091,2.091,0,0,0,1.5-.631L19.3,8.144a1.209,1.209,0,0,0-.762-.269H4.987a1.2,1.2,0,0,0-.762.269l6.035,6.142A2.091,2.091,0,0,0,11.76,14.917Z" transform="translate(-0.385)"/>
  </g>
</svg>
