<svg xmlns="http://www.w3.org/2000/svg" width="14" height="14" viewBox="0 0 14 14">
  <g id="md-log-out" transform="translate(-48 -48)">
    <g id="Icon_1_" transform="translate(52.846 51.769)">
      <g id="Group_1200" data-name="Group 1200" transform="translate(0 0)">
        <path id="Path_461" data-name="Path 461" d="M192,163.951h6.384l-1.467,1.5,1.006,1.006,3.231-3.231L197.923,160l-1.043,1.006,1.5,1.5H192Z" transform="translate(-192 -160)" fill="#fff"/>
      </g>
    </g>
    <g id="Group_1201" data-name="Group 1201" transform="translate(48 48)">
      <path id="Path_462" data-name="Path 462" d="M54.99,60.563a5.563,5.563,0,1,1,3.921-9.5l1.02-1.02A7.438,7.438,0,0,0,59,49.259a7.006,7.006,0,1,0,.929,10.7l-1.016-1.016A5.509,5.509,0,0,1,54.99,60.563Z" transform="translate(-48 -48)" fill="#fff"/>
      <rect id="Rectangle_1418" data-name="Rectangle 1418" width="0.04" height="0.04" transform="translate(13.462 7.029) rotate(-135)" fill="#fff"/>
    </g>
  </g>
</svg>
