<svg id="notification_1_" data-name="notification (1)" xmlns="http://www.w3.org/2000/svg" width="18.386" height="20" viewBox="0 0 18.386 20">
  <g id="Group_1097" data-name="Group 1097" transform="translate(0)">
    <g id="Group_1096" data-name="Group 1096">
      <path id="Path_416" data-name="Path 416" d="M191.132,469.361a2.761,2.761,0,0,0,5.069,0c-.8.039-1.635.065-2.534.065S191.934,469.4,191.132,469.361Z" transform="translate(-184.473 -451.027)" fill="#e5e5e5"/>
      <path id="Path_417" data-name="Path 417" d="M38.676,14.1c-1.054-1.33-2.824-3.943-2.824-6.5a6.031,6.031,0,0,0-4-5.654,2,2,0,0,0-4,0,6.031,6.031,0,0,0-4,5.654c0,2.558-1.769,5.17-2.824,6.5a1.7,1.7,0,0,0-.29,1.569,1.651,1.651,0,0,0,1.109,1.088,22.586,22.586,0,0,0,4.753.737c1,.067,2.077.106,3.253.106s2.251-.039,3.252-.106a22.6,22.6,0,0,0,4.754-.737,1.65,1.65,0,0,0,1.108-1.088A1.7,1.7,0,0,0,38.676,14.1Z" transform="translate(-20.66)" fill="#e5e5e5"/>
    </g>
  </g>
</svg>
