<svg xmlns="http://www.w3.org/2000/svg" width="14.709" height="16" viewBox="0 0 14.709 16">
  <g id="Group_1098" data-name="Group 1098" transform="translate(-1366 -12)">
    <g id="notification_1_" data-name="notification (1)" transform="translate(1345.34 12)">
      <g id="Group_1097" data-name="Group 1097" transform="translate(20.66)">
        <g id="Group_1096" data-name="Group 1096">
          <path id="Path_416" data-name="Path 416" d="M191.132,469.361a2.209,2.209,0,0,0,4.055,0c-.641.031-1.308.052-2.028.052S191.773,469.392,191.132,469.361Z" transform="translate(-185.805 -454.693)"/>
          <path id="Path_417" data-name="Path 417" d="M35.073,11.28c-.844-1.064-2.259-3.155-2.259-5.2a4.825,4.825,0,0,0-3.2-4.524,1.6,1.6,0,0,0-3.2,0,4.825,4.825,0,0,0-3.2,4.524c0,2.046-1.415,4.136-2.259,5.2a1.358,1.358,0,0,0-.232,1.255,1.321,1.321,0,0,0,.887.87,18.069,18.069,0,0,0,3.8.589c.8.054,1.661.085,2.6.085s1.8-.031,2.6-.085a18.077,18.077,0,0,0,3.8-.589,1.32,1.32,0,0,0,.886-.87A1.36,1.36,0,0,0,35.073,11.28Z" transform="translate(-20.66)"/>
        </g>
      </g>
    </g>
  </g>
</svg>
