<svg xmlns="http://www.w3.org/2000/svg" width="36.772" height="40" viewBox="0 0 36.772 40">
  <g id="Group_2195" data-name="Group 2195" transform="translate(-1366 -12)">
    <g id="notification_1_" data-name="notification (1)" transform="translate(1366 12)">
      <g id="Group_1097" data-name="Group 1097" transform="translate(0)">
        <g id="Group_1096" data-name="Group 1096">
          <path id="Path_416" data-name="Path 416" d="M191.132,469.361a5.522,5.522,0,0,0,10.138,0c-1.6.078-3.271.131-5.069.131S192.735,469.439,191.132,469.361Z" transform="translate(-177.814 -432.692)" fill="#e5e5e5"/>
          <path id="Path_417" data-name="Path 417" d="M56.693,28.2c-2.109-2.659-5.648-7.886-5.648-13a12.062,12.062,0,0,0-8-11.309,4,4,0,0,0-8,0,12.061,12.061,0,0,0-8,11.309c0,5.115-3.538,10.341-5.648,13a3.4,3.4,0,0,0-.581,3.138,3.3,3.3,0,0,0,2.218,2.176,45.173,45.173,0,0,0,9.506,1.474c2,.134,4.154.213,6.506.213s4.5-.078,6.5-.213a45.192,45.192,0,0,0,9.507-1.474,3.3,3.3,0,0,0,2.216-2.176A3.4,3.4,0,0,0,56.693,28.2Z" transform="translate(-20.66)" fill="#e5e5e5"/>
        </g>
      </g>
    </g>
  </g>
</svg>
