<svg id="Opel" xmlns="http://www.w3.org/2000/svg" width="26.194" height="20" viewBox="0 0 26.194 20">
  <path id="Path_1152" data-name="Path 1152" d="M11.654,21.252v.373a8.867,8.867,0,0,0,17.388,2.463l-14.179.149L18.3,21.625l-6.642-.373Zm.373-2.015a8.855,8.855,0,0,1,17.388,2.388v.448l-6.642-.3,3.508-2.687-14.254.149Zm-1.493,2.015L7.4,21.1V19.312h3.358A9.995,9.995,0,0,1,30.46,21.7v.448l3.134.149v1.791H30.236a9.995,9.995,0,0,1-19.7-2.388q0-.336,0-.448Z" transform="translate(-7.4 -11.7)" fill="#231f20" fill-rule="evenodd"/>
</svg>
