<svg height="512pt" viewBox="0 -31 512 512" width="512pt" xmlns="http://www.w3.org/2000/svg"><path d="m80.039062 241.042969-31.820312 31.820312c-8.785156 8.785157-8.785156 23.03125 0 31.820313 8.789062 8.785156 23.035156 8.785156 31.820312 0l31.820313-31.820313c8.789063-8.789062 8.789063-23.035156 0-31.820312-8.785156-8.789063-23.03125-8.789063-31.820313 0zm0 0"/><path d="m186.105469 347.109375-31.820313 31.820313c-8.785156 8.785156-8.785156 23.03125 0 31.816406 8.785156 8.789062 23.03125 8.789062 31.820313 0l31.820312-31.816406c8.785157-8.789063 8.785157-23.035157 0-31.820313-8.789062-8.789063-23.03125-8.789063-31.820312 0zm0 0"/><path d="m260.351562 442.566406 10.605469-10.605468c8.789063-8.789063 8.789063-23.035157 0-31.820313-8.785156-8.785156-23.03125-8.785156-31.820312 0l-10.605469 10.605469c-8.785156 8.789062-8.785156 23.035156 0 31.820312 8.785156 8.789063 23.035156 8.789063 31.820312 0zm0 0"/><path d="m154.285156 272.863281-53.03125 53.03125c-8.789062 8.789063-8.789062 23.035157 0 31.820313 8.785156 8.785156 23.03125 8.785156 31.816406 0l53.035157-53.03125c8.785156-8.789063 8.785156-23.035156 0-31.820313-8.789063-8.789062-23.03125-8.789062-31.820313 0zm0 0"/><path d="m191.40625 44.820312-38.519531-38.925781c-5.859375-5.8593748-15.355469-5.8593748-21.214844 0l-127.277344 127.277344c-5.859375 5.859375-5.859375 15.355469 0 21.214844l26.003907 26.40625c8.230468 8.234375 14.433593 18.269531 18.117187 29.316406l5.007813 15.023437 5.304687-5.304687c20.46875-20.464844 53.777344-20.464844 74.246094 0 6.484375 6.488281 10.679687 14.320313 13.054687 22.570313 19.765625-10.230469 44.636719-7.304688 61.191406 9.25 16.554688 16.554687 19.480469 41.425781 9.25 61.195312 8.25 2.375 16.082032 6.5625 22.570313 13.050781 10.390625 10.390625 15.449219 24.09375 15.289063 37.742188 13.652343-.15625 27.351562 4.902343 37.742187 15.292969 5.21875 5.21875 21.214844 21.210937 21.214844 21.210937 8.785156 8.789063 23.03125 8.789063 31.816406 0 8.789063-8.785156 8.789063-23.03125 0-31.820313l-37.121094-37.121093c-5.859375-5.859375-5.859375-15.355469 0-21.214844 5.859375-5.855469 15.355469-5.855469 21.210938 0l37.125 37.125c8.785156 8.785156 23.035156 8.785156 31.820312 0 8.785157-8.785156 8.785157-23.035156 0-31.820313l-37.125-37.125c-5.855469-5.855468-5.855469-15.351562 0-21.210937 5.859375-5.859375 15.359375-5.859375 21.214844 0l37.125 37.121094c8.785156 8.785156 23.03125 8.785156 31.820313 0 8.785156-8.785157 8.785156-23.03125 0-31.816407l-91.230469-91.230468c-29.105469 19.246094-68.777344 16.074218-94.386719-9.535156-5.851562-5.851563-15.359375-5.851563-21.210938 0-29.242187 29.242187-76.824218 29.242187-106.066406 0-17.546875-17.542969-17.546875-46.09375 0-63.636719zm0 0"/><path d="m380.328125 4.394531c-5.859375-5.859375-15.355469-5.859375-21.214844 0l-31.726562 31.726563c-5.570313 5.570312-13.125 8.699218-21 8.699218h-53.914063c-11.933594 0-23.378906 4.742188-31.816406 13.179688l-61.066406 61.066406c-5.941406 5.941406-5.941406 15.273438 0 21.214844 17.605468 17.605469 46.03125 17.605469 63.636718 0 15.867188-15.867188 40.730469-17.386719 58.320313-4.558594 23.65625 17.257813 55.203125 18.3125 75.910156-2.394531l3.65625-3.65625 103.203125 103.203125c1.429688-5.285156 1.457032-10.878906.058594-16.070312-2.425781-8.996094 1.09375-21.78125 7.683594-28.371094l35.546875-35.546875c5.859375-5.859375 5.859375-15.355469 0-21.210938zm0 0"/></svg>