<svg id="preview" xmlns="http://www.w3.org/2000/svg" width="18" height="18" viewBox="0 0 18 18">
  <path id="Path_448" data-name="Path 448" d="M290,8.784v3.207h3.207Z" transform="translate(-279.805 -8.475)" fill="#747474"/>
  <path id="Path_449" data-name="Path 449" d="M12.78,6.328a4.216,4.216,0,0,1,.931.1V4.57H9.668a.527.527,0,0,1-.527-.527V0H1.934A1.936,1.936,0,0,0,0,1.934V16.066A1.936,1.936,0,0,0,1.934,18h9.844a1.936,1.936,0,0,0,1.934-1.934v-1.4a4.219,4.219,0,1,1-.931-8.334Zm-5.573,6.68H2.637a.527.527,0,0,1,0-1.055h4.57a.527.527,0,0,1,0,1.055Zm0-2.109H2.637a.527.527,0,0,1,0-1.055h4.57a.527.527,0,0,1,0,1.055Zm0-2.109H2.637a.527.527,0,0,1,0-1.055h4.57a.527.527,0,0,1,0,1.055ZM8.613,6.68H2.637a.527.527,0,0,1,0-1.055H8.613a.527.527,0,0,1,0,1.055Z" fill="#747474"/>
  <path id="Path_450" data-name="Path 450" d="M281.737,217.484,279.249,215a3.167,3.167,0,1,0-.746.746l2.488,2.488a.527.527,0,0,0,.746-.746Z" transform="translate(-263.892 -202.617)" fill="#747474"/>
</svg>
