<svg xmlns="http://www.w3.org/2000/svg" width="19.355" height="20" viewBox="0 0 19.355 20">
  <g id="printer" transform="translate(-8)">
    <path id="Path_440" data-name="Path 440" d="M71.484,1.4a1.4,1.4,0,0,0-1.4-1.4H57.4A1.4,1.4,0,0,0,56,1.4V4.839H71.484Z" transform="translate(-46.065)" fill="#747474"/>
    <path id="Path_441" data-name="Path 441" d="M26.6,152H8.756a.757.757,0,0,0-.756.756v7.52a.757.757,0,0,0,.756.756h2.792v-2.47a2.048,2.048,0,0,1,2.046-2.046H21.76a2.048,2.048,0,0,1,2.046,2.046v2.47H26.6a.757.757,0,0,0,.756-.756v-7.52A.757.757,0,0,0,26.6,152Zm-1.825,2.9h-.968a.645.645,0,0,1,0-1.29h.968a.645.645,0,0,1,0,1.29Zm-3.014,2.9H13.595a.757.757,0,0,0-.756.756v6.552a.757.757,0,0,0,.756.756H21.76a.757.757,0,0,0,.756-.756v-6.552A.757.757,0,0,0,21.76,157.806Zm-2.147,6.129H15.742a.645.645,0,1,1,0-1.29h3.871a.645.645,0,1,1,0,1.29Zm0-2.9H15.742a.645.645,0,1,1,0-1.29h3.871a.645.645,0,1,1,0,1.29Z" transform="translate(0 -145.871)" fill="#747474"/>
  </g>
</svg>
