<svg xmlns="http://www.w3.org/2000/svg" width="15.887" height="20" viewBox="0 0 15.887 20">
  <path id="Reno" d="M22.188,8.5c.182.242.485.424.606.667,1.576,2.788,3.152,5.636,4.727,8.485a1.7,1.7,0,0,1,0,1.7c-1.576,2.848-3.212,5.7-4.788,8.545a1.039,1.039,0,0,1-.97.606H17.824a.94.94,0,0,1-.909-.545c-1.636-2.909-3.212-5.758-4.849-8.667a1.62,1.62,0,0,1,0-1.576c1.576-2.848,3.152-5.636,4.727-8.485a3.805,3.805,0,0,1,.667-.727Zm-4,18.727a.212.212,0,0,1,.121.061c1.455-2.788,2.909-5.576,4.3-8.424a1.2,1.2,0,0,0-.061-.909c-.667-1.394-1.333-2.848-2.121-4.182a1.589,1.589,0,0,1-.061-1.636A25.07,25.07,0,0,0,21.582,9.53c-.061,0-.121-.061-.182-.061-1.455,2.909-2.97,5.758-4.424,8.667a1.2,1.2,0,0,0,.061.909c.727,1.515,1.515,3.03,2.3,4.606a1.364,1.364,0,0,1,.061.848C19.036,25.409,18.612,26.318,18.188,27.227Z" transform="translate(-11.861 -8.5)"/>
</svg>
