<svg xmlns="http://www.w3.org/2000/svg" width="22.925" height="20" viewBox="0 0 22.925 20">
  <path id="sms_1_" data-name="sms (1)" d="M17.991,31.26H4.934A4.994,4.994,0,0,0,0,36.3V41.3a4.994,4.994,0,0,0,4.934,5.041h8.253l6,4.923V46.185a5.021,5.021,0,0,0,3.738-4.89V36.3A4.994,4.994,0,0,0,17.991,31.26ZM5.279,40.952a3.158,3.158,0,0,1-1.442-.31l.246-.995a2.709,2.709,0,0,0,1.2.338c.42,0,.593-.146.593-.374s-.137-.338-.657-.511c-.922-.311-1.278-.812-1.269-1.342,0-.83.712-1.46,1.816-1.46a2.991,2.991,0,0,1,1.26.255l-.246.958a2.186,2.186,0,0,0-.968-.256c-.338,0-.53.137-.53.365,0,.21.173.32.721.511.849.292,1.2.721,1.214,1.378C7.214,40.34,6.557,40.952,5.279,40.952Zm9.52-.091H13.448V38.433c0-.649-.211-1.023-.658-1.023a.679.679,0,0,0-.639.484,1.162,1.162,0,0,0-.055.356v2.61H10.746v-2.5c0-.566-.2-.949-.639-.949a.707.707,0,0,0-.648.5.922.922,0,0,0-.055.347v2.6H8.053v-3.04c0-.556-.018-1.031-.036-1.424H9.185l.064.6h.027a1.548,1.548,0,0,1,1.351-.7,1.265,1.265,0,0,1,1.223.757h.018a1.993,1.993,0,0,1,.575-.538,1.611,1.611,0,0,1,.849-.219c.858,0,1.506.6,1.506,1.934v2.629Zm2.289.091a3.158,3.158,0,0,1-1.442-.31l.246-.995a2.709,2.709,0,0,0,1.2.338c.42,0,.593-.146.593-.374s-.137-.338-.657-.511c-.922-.311-1.278-.812-1.269-1.342,0-.83.712-1.46,1.816-1.46a2.994,2.994,0,0,1,1.26.255l-.246.958a2.186,2.186,0,0,0-.968-.256c-.338,0-.53.137-.53.365,0,.21.173.32.721.511.849.292,1.2.721,1.214,1.378C19.023,40.34,18.366,40.952,17.088,40.952Z" transform="translate(0 -31.26)" fill="#747474"/>
</svg>
