<svg xmlns="http://www.w3.org/2000/svg" width="12.6" height="14" viewBox="0 0 12.6 14">
  <path id="statistics-report" d="M3.7,12.5H6.417L5.173,14.987a.7.7,0,1,0,1.253.626l1.4-2.8a.687.687,0,0,0,.066-.313H8.6v2.1a.7.7,0,1,0,1.4,0V12.5h.707a.687.687,0,0,0,.07.313l1.4,2.8a.7.7,0,1,0,1.253-.626L12.182,12.5H14.9a.7.7,0,0,0,.7-.7v-7a.7.7,0,0,0-.7-.7H10V2.7a.7.7,0,1,0-1.4,0V4.1H3.7a.7.7,0,0,0-.7.7v7a.7.7,0,0,0,.7.7Zm7.7-5.6a.7.7,0,0,1,1.4,0V9.7a.7.7,0,0,1-1.4,0Zm-2.8.7a.7.7,0,0,1,1.4,0V9.7a.7.7,0,0,1-1.4,0Zm-2.8.7a.7.7,0,0,1,1.4,0V9.7a.7.7,0,0,1-1.4,0Z" transform="translate(-3 -2)" fill="#fff"/>
</svg>
