<svg xmlns="http://www.w3.org/2000/svg" width="15" height="15" viewBox="0 0 15 15">
  <g id="Group_1107" data-name="Group 1107" transform="translate(-535 -405)">
    <path id="Rectangle_1888_copy_2" data-name="Rectangle 1888 copy 2" d="M2.813,0h9.375A2.812,2.812,0,0,1,15,2.813v9.375A2.813,2.813,0,0,1,12.188,15H2.813A2.812,2.812,0,0,1,0,12.188V2.813A2.812,2.812,0,0,1,2.813,0Z" transform="translate(535 405)" fill="#fed000"/>
    <path id="Path_426" data-name="Path 426" d="M3.4-1.165a.513.513,0,0,0,.707,0l5.75-5.554a.471.471,0,0,0,0-.683l-.707-.683a.513.513,0,0,0-.707,0L3.75-3.556,1.561-5.67a.513.513,0,0,0-.707,0l-.707.683a.471.471,0,0,0,0,.683Z" transform="translate(537.379 417)" fill="#12100b"/>
  </g>
</svg>
