<svg xmlns="http://www.w3.org/2000/svg" width="10.8" height="12" viewBox="0 0 10.8 12">
  <g id="trash" transform="translate(-3 -2)">
    <path id="Rectangle" d="M6.2,6.2v7.2a.6.6,0,0,0,.6.6h4.8a.6.6,0,0,0,.6-.6V6.2ZM5.6,5h7.2a.6.6,0,0,1,.6.6v7.8a1.8,1.8,0,0,1-1.8,1.8H6.8A1.8,1.8,0,0,1,5,13.4V5.6A.6.6,0,0,1,5.6,5Z" transform="translate(-0.8 -1.2)"/>
    <path id="Path-12" d="M3.6,6.2A.6.6,0,0,1,3.6,5h9.6a.6.6,0,1,1,0,1.2Z" transform="translate(0 -1.2)"/>
    <path id="Path-13" d="M9.6,3.2A.6.6,0,1,1,9.6,2H12a.6.6,0,0,1,0,1.2Z" transform="translate(-2.4)"/>
    <path id="Path-14" d="M9,9.6a.6.6,0,0,1,1.2,0v3.6a.6.6,0,1,1-1.2,0Z" transform="translate(-2.4 -2.8)"/>
    <path id="Path-14-Copy" d="M13,9.6a.6.6,0,1,1,1.2,0v3.6a.6.6,0,1,1-1.2,0Z" transform="translate(-4 -2.8)"/>
  </g>
</svg>
