<svg xmlns="http://www.w3.org/2000/svg" width="12" height="11.215" viewBox="0 0 12 11.215">
  <path id="two-cars-in-line" d="M11.647,13.759a.43.43,0,0,0-.114.016l-.433.119-.45-1.1a.981.981,0,0,0-.84-.563H8.358V11.4a3.423,3.423,0,0,0-.215-1.088l-.073-.177h.055a.457.457,0,0,0,.456-.456V9.42a.351.351,0,0,0-.353-.372.432.432,0,0,0-.114.016l-.433.119-.45-1.1a.981.981,0,0,0-.84-.563H2.183a.982.982,0,0,0-.84.563L.895,9.182.467,9.064a.43.43,0,0,0-.114-.016A.351.351,0,0,0,0,9.42v.255a.457.457,0,0,0,.456.456H.505l-.073.177A3.42,3.42,0,0,0,.218,11.4v2.176a.457.457,0,0,0,.456.456h.6a.457.457,0,0,0,.456-.456v-.543H4.668l-.355.864-.428-.118a.43.43,0,0,0-.114-.016.351.351,0,0,0-.353.372v.255a.457.457,0,0,0,.456.456h.049l-.073.177a3.422,3.422,0,0,0-.215,1.088v2.176a.457.457,0,0,0,.456.456h.6a.457.457,0,0,0,.456-.456V17.74h5.125v.543a.457.457,0,0,0,.456.456h.6a.457.457,0,0,0,.456-.456V16.107a3.422,3.422,0,0,0-.215-1.088l-.073-.177h.055A.457.457,0,0,0,12,14.386v-.255A.351.351,0,0,0,11.647,13.759Zm-4.167-2.4v.62a.183.183,0,0,1-.182.182H6.006a.183.183,0,0,1-.182-.182v-.62a.183.183,0,0,1,.182-.182H7.3A.183.183,0,0,1,7.48,11.359Zm-4.74.62a.183.183,0,0,1-.182.182H1.266a.183.183,0,0,1-.182-.182v-.62a.183.183,0,0,1,.182-.182H2.558a.183.183,0,0,1,.182.182v.62ZM1.448,10.221a.228.228,0,0,1-.226-.338L1.9,8.227a.59.59,0,0,1,.5-.338H6.17a.59.59,0,0,1,.5.338l.68,1.657a.228.228,0,0,1-.226.338ZM4.64,14.595l.68-1.657a.59.59,0,0,1,.5-.338H9.589a.59.59,0,0,1,.5.338l.68,1.657a.228.228,0,0,1-.226.338H4.867A.228.228,0,0,1,4.64,14.595Zm1.519,2.1a.183.183,0,0,1-.182.182H4.684a.183.183,0,0,1-.182-.182v-.62a.183.183,0,0,1,.182-.182H5.976a.183.183,0,0,1,.182.182v.62Zm4.74,0a.183.183,0,0,1-.182.182H9.424a.183.183,0,0,1-.182-.182v-.62a.183.183,0,0,1,.182-.182h1.292a.183.183,0,0,1,.182.182Z" transform="translate(0 -7.525)"/>
</svg>
