<svg xmlns="http://www.w3.org/2000/svg" width="24" height="22.43" viewBox="0 0 24 22.43">
  <path id="two-cars-in-line" d="M23.294,19.993a.86.86,0,0,0-.228.032l-.866.239-.9-2.191a1.963,1.963,0,0,0-1.679-1.126H16.716V15.268a6.846,6.846,0,0,0-.429-2.176l-.145-.354h.11a.913.913,0,0,0,.912-.912v-.511a.7.7,0,0,0-.706-.744.864.864,0,0,0-.228.032l-.866.239-.9-2.191a1.963,1.963,0,0,0-1.679-1.126H4.367A1.963,1.963,0,0,0,2.688,8.651l-.9,2.188L.935,10.6a.86.86,0,0,0-.228-.032A.7.7,0,0,0,0,11.315v.511a.913.913,0,0,0,.912.912h.1l-.145.354a6.84,6.84,0,0,0-.429,2.176v4.353a.913.913,0,0,0,.912.912H2.539a.913.913,0,0,0,.912-.912V18.534H9.335l-.709,1.727-.855-.236a.859.859,0,0,0-.228-.032.7.7,0,0,0-.706.744v.511a.913.913,0,0,0,.912.912h.1l-.145.354a6.843,6.843,0,0,0-.429,2.176v4.353a.913.913,0,0,0,.912.912H9.376a.913.913,0,0,0,.912-.912V27.956H20.537v1.087a.913.913,0,0,0,.912.912H22.64a.913.913,0,0,0,.912-.912V24.69a6.843,6.843,0,0,0-.429-2.176l-.145-.354h.11A.913.913,0,0,0,24,21.248v-.511A.7.7,0,0,0,23.294,19.993Zm-8.333-4.8v1.24a.366.366,0,0,1-.365.365H12.011a.366.366,0,0,1-.365-.365v-1.24a.366.366,0,0,1,.365-.365H14.6A.366.366,0,0,1,14.96,15.194Zm-9.479,1.24a.366.366,0,0,1-.365.365H2.532a.366.366,0,0,1-.365-.365v-1.24a.366.366,0,0,1,.365-.365H5.116a.366.366,0,0,1,.365.365v1.24ZM2.9,12.917a.455.455,0,0,1-.453-.675L3.8,8.928a1.18,1.18,0,0,1,1.007-.675H12.34a1.179,1.179,0,0,1,1.007.675l1.361,3.314a.455.455,0,0,1-.453.675ZM9.28,21.664l1.361-3.314a1.179,1.179,0,0,1,1.007-.675h7.529a1.179,1.179,0,0,1,1.007.675l1.36,3.314a.455.455,0,0,1-.453.675H9.733A.455.455,0,0,1,9.28,21.664Zm3.037,4.192a.366.366,0,0,1-.365.365H9.368A.366.366,0,0,1,9,25.856v-1.24a.366.366,0,0,1,.365-.365h2.585a.366.366,0,0,1,.365.365v1.24Zm9.479,0a.366.366,0,0,1-.365.365H18.848a.366.366,0,0,1-.365-.365v-1.24a.366.366,0,0,1,.365-.365h2.585a.366.366,0,0,1,.365.365Z" transform="translate(0 -7.525)" fill="#fff"/>
</svg>
