<svg xmlns="http://www.w3.org/2000/svg" width="19.26" height="18" viewBox="0 0 19.26 18">
  <path id="two-cars-in-line" d="M18.694,17.531a.69.69,0,0,0-.183.025l-.7.191-.722-1.758a1.575,1.575,0,0,0-1.347-.9H13.415V13.739a5.494,5.494,0,0,0-.345-1.747l-.116-.284h.088a.733.733,0,0,0,.732-.732v-.41a.563.563,0,0,0-.567-.6.693.693,0,0,0-.183.025l-.7.191-.722-1.758a1.575,1.575,0,0,0-1.347-.9H3.5a1.575,1.575,0,0,0-1.347.9l-.721,1.756L.75,10A.69.69,0,0,0,.567,9.97a.563.563,0,0,0-.567.6v.41a.733.733,0,0,0,.732.732H.811l-.116.284A5.489,5.489,0,0,0,.35,13.739v3.493a.733.733,0,0,0,.732.732h.956a.733.733,0,0,0,.732-.732v-.872H7.492l-.569,1.386-.686-.189a.69.69,0,0,0-.183-.025.563.563,0,0,0-.567.6v.41a.733.733,0,0,0,.732.732H6.3l-.117.284A5.492,5.492,0,0,0,5.836,21.3v3.493a.733.733,0,0,0,.732.732h.956a.733.733,0,0,0,.732-.732v-.872h8.225v.872a.733.733,0,0,0,.732.732h.956a.733.733,0,0,0,.732-.732V21.3a5.492,5.492,0,0,0-.345-1.747l-.116-.284h.088a.733.733,0,0,0,.732-.732v-.41A.563.563,0,0,0,18.694,17.531Zm-6.688-3.852v1a.294.294,0,0,1-.293.293H9.639a.294.294,0,0,1-.293-.293v-1a.294.294,0,0,1,.293-.293h2.074A.294.294,0,0,1,12.006,13.679Zm-7.607,1a.294.294,0,0,1-.293.293H2.032a.294.294,0,0,1-.293-.293v-1a.294.294,0,0,1,.293-.293H4.106a.294.294,0,0,1,.293.293v1ZM2.324,11.852a.365.365,0,0,1-.363-.542l1.092-2.66a.947.947,0,0,1,.808-.542H9.9a.946.946,0,0,1,.808.542l1.092,2.66a.365.365,0,0,1-.363.542Zm5.123,7.019,1.092-2.66a.947.947,0,0,1,.808-.542H15.39a.947.947,0,0,1,.808.542l1.092,2.66a.365.365,0,0,1-.363.542H7.811A.365.365,0,0,1,7.448,18.872Zm2.437,3.364a.294.294,0,0,1-.293.293H7.518a.294.294,0,0,1-.293-.293v-1a.294.294,0,0,1,.293-.293H9.592a.294.294,0,0,1,.293.293v1Zm7.607,0a.294.294,0,0,1-.293.293H15.125a.294.294,0,0,1-.293-.293v-1a.294.294,0,0,1,.293-.293H17.2a.294.294,0,0,1,.293.293Z" transform="translate(0 -7.525)" fill="#9054c3"/>
</svg>
