<svg xmlns="http://www.w3.org/2000/svg" width="14" height="14" viewBox="0 0 14 14">
  <g id="Layer_2" data-name="Layer 2" transform="translate(-0.989 -0.999)">
    <path id="Path_412" data-name="Path 412" d="M12.8,10.6a2.8,2.8,0,1,1,2.8-2.8,2.8,2.8,0,0,1-2.8,2.8Zm0-4.667A1.867,1.867,0,1,0,14.667,7.8,1.867,1.867,0,0,0,12.8,5.933Z" transform="translate(-4.806 -2.134)"/>
    <path id="Path_413" data-name="Path 413" d="M9.541,24.473a7,7,0,0,1-5.408-2.562l-.243-.3.243-.294a7,7,0,0,1,10.817,0l.243.294-.243.3A7,7,0,0,1,9.541,24.473ZM5.113,21.617a6.066,6.066,0,0,0,8.866,0,6.066,6.066,0,0,0-8.866,0Z" transform="translate(-1.548 -9.474)"/>
    <path id="Path_414" data-name="Path 414" d="M7.994,15A7,7,0,1,1,13.4,12.437,7,7,0,0,1,7.994,15Zm0-13.066A6.066,6.066,0,1,0,14.06,8,6.066,6.066,0,0,0,7.994,1.933Z"/>
    <path id="Path_415" data-name="Path 415" d="M5.18,22.078s4.7,5.25,9.482.523l.616-.523s-3.995-4.144-8.05-1.657Z" transform="translate(-2.236 -9.935)"/>
    <circle id="Ellipse_9" data-name="Ellipse 9" cx="2.333" cy="2.333" r="2.333" transform="translate(5.66 3.333)"/>
  </g>
</svg>
