<svg xmlns="http://www.w3.org/2000/svg" width="16" height="16" viewBox="0 0 16 16">
  <g id="Layer_2" data-name="Layer 2" transform="translate(-0.989 -0.999)">
    <path id="Path_412" data-name="Path 412" d="M13.2,11.4a3.2,3.2,0,1,1,3.2-3.2,3.2,3.2,0,0,1-3.2,3.2Zm0-5.333A2.133,2.133,0,1,0,15.333,8.2,2.133,2.133,0,0,0,13.2,6.067Z" transform="translate(-4.206 -1.867)" fill="#fed000"/>
    <path id="Path_413" data-name="Path 413" d="M10.348,25.289a8,8,0,0,1-6.181-2.928L3.89,22.02l.277-.336a8,8,0,0,1,12.362,0l.277.336-.277.341A8,8,0,0,1,10.348,25.289ZM5.287,22.025a6.933,6.933,0,0,0,10.133,0,6.933,6.933,0,0,0-10.133,0Z" transform="translate(-1.354 -8.29)" fill="#fed000"/>
    <path id="Path_414" data-name="Path 414" d="M8.994,17a8,8,0,1,1,6.181-2.928A8,8,0,0,1,8.994,17Zm0-14.933A6.933,6.933,0,1,0,15.927,9,6.933,6.933,0,0,0,8.994,2.066Z" transform="translate(0 0)" fill="#fed000"/>
    <path id="Path_415" data-name="Path 415" d="M5.18,22.428s5.37,6,10.837.6l.7-.6s-4.565-4.736-9.2-1.893Z" transform="translate(-1.956 -8.693)" fill="#fed000"/>
    <circle id="Ellipse_9" data-name="Ellipse 9" cx="2.667" cy="2.667" r="2.667" transform="translate(6.328 3.666)" fill="#fed000"/>
  </g>
</svg>
