<svg xmlns="http://www.w3.org/2000/svg" width="14" height="14" viewBox="0 0 14 14">
  <path id="Icon_ionic-logo-whatsapp" data-name="Icon ionic-logo-whatsapp" d="M9.377,2.25A6.846,6.846,0,0,0,2.5,9.07a6.749,6.749,0,0,0,.986,3.521L2.25,16.25l3.805-1.209A6.884,6.884,0,0,0,16.25,9.07,6.846,6.846,0,0,0,9.377,2.25Zm3.418,9.41a1.775,1.775,0,0,1-1.216.783c-.322.017-.332.25-2.089-.514a7.171,7.171,0,0,1-2.9-2.74,3.37,3.37,0,0,1-.648-1.827,1.947,1.947,0,0,1,.669-1.429.673.673,0,0,1,.476-.2c.138,0,.228,0,.33,0s.256-.021.389.332S8.26,7.29,8.3,7.378a.318.318,0,0,1,0,.305,1.194,1.194,0,0,1-.186.284c-.092.1-.193.22-.275.3s-.187.174-.091.352a5.259,5.259,0,0,0,.931,1.242,4.8,4.8,0,0,0,1.378.916c.172.094.275.083.382-.029s.457-.492.581-.662.239-.137.4-.073,1,.517,1.177.611.287.142.328.216A1.443,1.443,0,0,1,12.795,11.66Z" transform="translate(-2.25 -2.25)" fill="#fff"/>
</svg>
