<svg xmlns="http://www.w3.org/2000/svg" width="31.748" height="18" viewBox="0 0 31.748 18">
  <g id="_x32_3.VK" transform="translate(0 0)">
    <g id="Group_1190" data-name="Group 1190" transform="translate(0 0)">
      <g id="Group_1189" data-name="Group 1189">
        <path id="Path_458" data-name="Path 458" d="M25.444,45.179h1.9a1.767,1.767,0,0,0,.871-.4,1.369,1.369,0,0,0,.277-.832s-.04-2.535,1.148-2.931c1.148-.356,2.653,2.455,4.237,3.525a2.884,2.884,0,0,0,2.1.634l4.237-.04s2.218-.119,1.148-1.861c-.079-.158-.594-1.307-3.129-3.643-2.653-2.455-2.3-2.059.911-6.336,1.94-2.574,2.732-4.158,2.495-4.871-.238-.634-1.663-.475-1.663-.475l-4.752.04a1.186,1.186,0,0,0-.634.119,1.405,1.405,0,0,0-.475.554,28.136,28.136,0,0,1-1.742,3.723c-2.138,3.6-2.97,3.8-3.327,3.564-.792-.515-.594-2.1-.594-3.208,0-3.485.515-4.95-1.03-5.307a9.5,9.5,0,0,0-2.218-.238,10.81,10.81,0,0,0-3.96.4c-.554.277-.95.871-.713.871a2.05,2.05,0,0,1,1.386.713,4.76,4.76,0,0,1,.475,2.139s.277,4.119-.673,4.633c-.634.356-1.5-.356-3.406-3.643a33.483,33.483,0,0,1-1.7-3.525,1.4,1.4,0,0,0-.4-.515,1.776,1.776,0,0,0-1.03-.277l-4.237.04s-.673,0-.911.317c-.238.277,0,.792,0,.792S13.6,37.417,17.6,41.576a10.694,10.694,0,0,0,7.841,3.6Z" transform="translate(-9.933 -27.2)" fill="#747474" fill-rule="evenodd"/>
      </g>
    </g>
  </g>
</svg>
