<svg xmlns="http://www.w3.org/2000/svg" width="17.712" height="20" viewBox="0 0 17.712 20">
  <g id="xlsx-file-format-extension" transform="translate(-31.36)">
    <path id="Path_442" data-name="Path 442" d="M47.951,7.154h-.48V4.837a.384.384,0,0,0,0-.044.385.385,0,0,0-.093-.254L43.518.134l0,0a.386.386,0,0,0-.078-.066L43.411.051a.412.412,0,0,0-.077-.033L43.312.011A.39.39,0,0,0,43.222,0H33.745a.785.785,0,0,0-.784.784V7.154h-.48A1.121,1.121,0,0,0,31.36,8.275V14.1a1.121,1.121,0,0,0,1.121,1.121h.48v3.991a.785.785,0,0,0,.784.784H46.687a.785.785,0,0,0,.784-.784V15.225h.48A1.121,1.121,0,0,0,49.072,14.1V8.275A1.121,1.121,0,0,0,47.951,7.154ZM33.745.784H42.83V4.8a.392.392,0,0,0,.392.392h3.464V7.154H33.745Zm7.945,10.694c-.771-.268-1.273-.695-1.273-1.369,0-.791.661-1.4,1.755-1.4a2.839,2.839,0,0,1,1.183.234l-.234.846a2.207,2.207,0,0,0-.97-.22c-.454,0-.674.207-.674.447,0,.3.262.427.86.654.819.3,1.2.73,1.2,1.383,0,.778-.6,1.438-1.872,1.438a3.032,3.032,0,0,1-1.314-.282l.213-.867a2.679,2.679,0,0,0,1.163.289c.482,0,.736-.2.736-.5S42.248,11.677,41.691,11.478Zm-1.775,1.067v.881h-2.9V8.787h1.053v3.758Zm-6.262.881h-1.2L33.8,11.078,32.5,8.786h1.2l.406.847c.138.282.241.509.351.771h.013c.11-.3.2-.5.316-.771l.392-.847h1.2L35.078,11.05l1.377,2.375H35.243l-.42-.84c-.172-.323-.282-.564-.413-.833H34.4c-.1.268-.213.51-.358.833ZM46.687,19H33.745V15.225H46.687V19Zm.007-5.578-.42-.84c-.172-.323-.282-.564-.413-.833h-.013c-.1.268-.214.509-.358.833l-.385.84h-1.2l1.342-2.347L43.955,8.786h1.2l.406.847c.138.282.24.509.351.771h.014c.11-.3.2-.5.316-.771l.392-.847h1.2L46.528,11.05,47.9,13.425H46.694Z" fill="#747474"/>
  </g>
</svg>
