<svg xmlns="http://www.w3.org/2000/svg" width="23.127" height="18" viewBox="0 0 23.127 18">
  <path id="Icon_ionic-logo-youtube" data-name="Icon ionic-logo-youtube" d="M22.977,8.475a3.592,3.592,0,0,0-3.343-3.806c-2.5-.122-5.055-.169-7.662-.169h-.813c-2.6,0-5.159.047-7.662.169A3.6,3.6,0,0,0,.158,8.484C.045,10.153,0,11.821,0,13.49S.045,16.827.153,18.5a3.6,3.6,0,0,0,3.339,3.82c2.629.127,5.326.183,8.069.178s5.435-.047,8.069-.178a3.6,3.6,0,0,0,3.343-3.82c.108-1.673.158-3.342.154-5.015S23.085,10.148,22.977,8.475ZM9.351,18.088V8.878l6.551,4.6Z" transform="translate(0 -4.5)" fill="#747474"/>
</svg>
